<svg width="32" height="33" viewBox="0 0 32 33" fill="none" xmlns="http://www.w3.org/2000/svg">
<path fill-rule="evenodd" clip-rule="evenodd" d="M23.9993 32.2482H8.00044C3.58901 32.2482 0 28.6929 0 24.3231V8.47327C0 4.10353 3.58901 0.548189 8.00044 0.548189H23.9993C28.4116 0.548189 32 4.10353 32 8.47327V24.3231C32 28.6929 28.4116 32.2482 23.9993 32.2482M23.0494 18.1842L23.244 19.7369C23.4181 21.1117 22.4302 22.3695 21.0428 22.5402L12.6544 23.5755C11.2675 23.7468 9.9978 22.7679 9.82547 21.3929L8.78062 13.0849C8.608 11.7102 9.59589 10.453 10.9836 10.2814L19.3706 9.24723C20.7583 9.07535 22.0272 10.054 22.2004 11.4287L22.3953 12.9805L26.5741 12.4658L26.2227 9.67416C25.849 6.70078 23.1022 4.58155 20.1007 4.95264L9.21248 6.29654C6.20947 6.66704 4.07251 9.3877 4.44624 12.3611L5.80227 23.1477C6.17629 26.1208 8.92213 28.2397 11.9251 27.8698L22.8134 26.5253C25.8155 26.1557 27.9545 23.4345 27.5787 20.4608L27.2279 17.6686L23.0494 18.1842" fill="#4B97EA"/>
</svg>
